HIERARCHY
ROOT Hips
{
	OFFSET 0.000000 0.000000 0.000000
	CHANNELS 6 Xposition Yposition Zposition Zrotation Yrotation Xrotation 
	JOINT LHipJoint
	{
		OFFSET 0.000000 0.000000 0.000000
		CHANNELS 3 Zrotation Yrotation Xrotation
		JOINT LeftUpLeg
		{
			OFFSET 1.363060 -1.794630 0.839290
			CHANNELS 3 Zrotation Yrotation Xrotation
			JOINT LeftLeg
			{
				OFFSET 2.448110 -6.726130 0.000000
				CHANNELS 3 Zrotation Yrotation Xrotation
				JOINT LeftFoot
				{
					OFFSET 2.562200 -7.039590 0.000000
					CHANNELS 3 Zrotation Yrotation Xrotation
					JOINT LeftToeBase
					{
						OFFSET 0.157640 -0.433110 2.322550
						CHANNELS 3 Zrotation Yrotation Xrotation
						End Site
						{
							OFFSET 0.000000 0.000000 0.000000
						}
					}
				}
			}
		}
	}
	JOINT RHipJoint
	{
		OFFSET 0.000000 0.000000 0.000000
		CHANNELS 3 Zrotation Yrotation Xrotation
		JOINT RightUpLeg
		{
			OFFSET -1.305520 -1.794630 0.839290
			CHANNELS 3 Zrotation Yrotation Xrotation
			JOINT RightLeg
			{
				OFFSET -2.542530 -6.985550 0.000000
				CHANNELS 3 Zrotation Yrotation Xrotation
				JOINT RightFoot
				{
					OFFSET -2.568260 -7.056230 0.000000
					CHANNELS 3 Zrotation Yrotation Xrotation
					JOINT RightToeBase
					{
						OFFSET -0.164730 -0.452590 2.363150
						CHANNELS 3 Zrotation Yrotation Xrotation
						End Site
						{
							OFFSET 0.000000 0.000000 0.000000
						}
					}
				}
			}
		}
	}
	JOINT LowerBack
	{
		OFFSET 0.000000 0.000000 0.000000
		CHANNELS 3 Zrotation Yrotation Xrotation
		JOINT Spine
		{
			OFFSET 0.028270 2.035590 -0.193380
			CHANNELS 3 Zrotation Yrotation Xrotation
			JOINT Spine1
			{
				OFFSET 0.056720 2.048850 -0.042750
				CHANNELS 3 Zrotation Yrotation Xrotation
				JOINT Neck
				{
					OFFSET 0.000000 0.000000 0.000000
					CHANNELS 3 Zrotation Yrotation Xrotation
					JOINT Neck1
					{
						OFFSET -0.054170 1.746240 0.172020
						CHANNELS 3 Zrotation Yrotation Xrotation
						JOINT Head
						{
							OFFSET 0.104070 1.761360 -0.123970
							CHANNELS 3 Zrotation Yrotation Xrotation
							End Site
							{
								OFFSET 0.000000 0.000000 0.000000
							}
						}
					}
				}
				JOINT LeftShoulder
				{
					OFFSET 0.000000 0.000000 0.000000
					CHANNELS 3 Zrotation Yrotation Xrotation
					JOINT LeftArm
					{
						OFFSET 3.362410 1.200890 -0.311210
						CHANNELS 3 Zrotation Yrotation Xrotation
						JOINT LeftForeArm
						{
							OFFSET 4.983000 -0.000000 -0.000000
							CHANNELS 3 Zrotation Yrotation Xrotation
							JOINT LeftHand
							{
								OFFSET 3.483560 -0.000000 -0.000000
								CHANNELS 3 Zrotation Yrotation Xrotation
								JOINT LeftFingerBase
								{
									OFFSET 0.000000 0.000000 0.000000
									CHANNELS 3 Zrotation Yrotation Xrotation
									JOINT LeftHandIndex1
									{
										OFFSET 0.715260 -0.000000 -0.000000
										CHANNELS 3 Zrotation Yrotation Xrotation
										End Site
										{
											OFFSET 0.000000 0.000000 0.000000
										}
									}
								}
								JOINT LThumb
								{
									OFFSET 0.000000 0.000000 0.000000
									CHANNELS 3 Zrotation Yrotation Xrotation
									End Site
									{
										OFFSET 0.000000 0.000000 0.000000
									}
								}
							}
						}
					}
				}
				JOINT RightShoulder
				{
					OFFSET 0.000000 0.000000 0.000000
					CHANNELS 3 Zrotation Yrotation Xrotation
					JOINT RightArm
					{
						OFFSET -3.136600 1.374050 -0.404650
						CHANNELS 3 Zrotation Yrotation Xrotation
						JOINT RightForeArm
						{
							OFFSET -5.241900 -0.000000 -0.000000
							CHANNELS 3 Zrotation Yrotation Xrotation
							JOINT RightHand
							{
								OFFSET -3.444170 -0.000000 -0.000000
								CHANNELS 3 Zrotation Yrotation Xrotation
								JOINT RightFingerBase
								{
									OFFSET 0.000000 0.000000 0.000000
									CHANNELS 3 Zrotation Yrotation Xrotation
									JOINT RightHandIndex1
									{
										OFFSET -0.622530 -0.000000 -0.000000
										CHANNELS 3 Zrotation Yrotation Xrotation
										End Site
										{
											OFFSET 0.000000 0.000000 0.000000
										}
									}
								}
								JOINT RThumb
								{
									OFFSET 0.000000 0.000000 0.000000
									CHANNELS 3 Zrotation Yrotation Xrotation
									End Site
									{
										OFFSET 0.000000 0.000000 0.000000
									}
								}
							}
						}
					}
				}
			}
		}
	}
}
MOTION
Frames: 7
Frame Time: 0.008333
11.855040 9.237836 31.510701 -177.619176 -7.052186 -111.718750 17.502555 -2.707115 -5.963118 -12.422479 -21.207714 -46.188954 15.486856 31.467787 83.456686 4.817853 -27.341817 29.809310 2.128500 9.128700 26.198800 -19.884461 0.795198 -8.289931 4.059719 9.199020 -83.002328 -33.413605 -27.869597 109.597925 -11.934711 -4.730798 72.393182 -2.547400 -9.923500 28.729500 2.540053 -1.885255 24.744657 2.088177 -2.167819 -3.397570 11.451555 -1.410585 -6.897711 -4.730372 0.310451 -18.329746 5.105587 5.314728 13.963860 -0.234500 2.578300 19.451000 6.764211 -30.881818 -11.212454 -8.163387 -34.784678 -10.116218 7.006600 -13.832459 -8.116653 -20.732824 3.843238 -29.014883 72.011254 -32.082504 -88.290000 -7.125000 0.000000 0.000000 29.042800 -54.000400 -41.512300 1.473654 33.066564 -5.273461 16.772402 43.316011 13.833906 -14.497364 12.092185 -10.437366 12.643177 3.518046 -4.914771 -67.208204 -28.135779 63.822600 7.125000 0.000000 0.000000 -79.803700 63.916800 -107.361400 
11.876268 9.234159 31.488287 -177.878076 -7.326079 -111.918158 17.479951 -2.713255 -5.943466 -12.351320 -21.466082 -45.831533 15.400060 31.453925 83.244235 4.817967 -27.332621 29.920692 2.148400 9.168600 26.324300 -19.892398 0.757423 -8.276579 4.429250 8.759117 -83.435187 -33.579485 -27.600073 110.223571 -11.903892 -4.687524 72.336046 -2.486400 -9.813100 28.373700 2.702677 -1.993842 24.864775 2.109820 -2.284195 -3.382855 11.483032 -1.490264 -6.833649 -4.713302 0.294590 -18.293222 5.124488 5.293553 14.010828 -0.228300 2.580000 19.451800 6.749021 -30.842383 -11.181744 -8.191324 -34.809435 -10.018322 6.975483 -13.817042 -8.101243 -20.765411 3.793296 -29.120301 72.104869 -32.077300 -88.481500 -7.125000 0.000000 0.000000 29.168900 -54.121100 -41.676700 1.502741 33.027105 -5.234090 16.850702 43.362740 13.863922 -14.532749 12.121004 -10.470080 12.635767 3.600998 -4.935934 -67.580731 -28.334405 64.794700 7.125000 0.000000 0.000000 -81.665200 64.068600 -109.427900 
11.898326 9.229890 31.463857 -178.152865 -7.619619 -112.113943 17.455090 -2.723363 -5.923058 -12.270406 -21.736019 -45.466000 15.309283 31.439613 83.019936 4.818120 -27.317924 30.037329 2.169800 9.211200 26.458100 -19.901585 0.726683 -8.266778 4.797160 8.335819 -83.806358 -33.727616 -27.348338 110.787916 -11.901778 -4.661857 72.329021 -2.424000 -9.698400 28.005600 2.879378 -2.109957 24.974524 2.133713 -2.408429 -3.369168 11.517182 -1.575144 -6.769903 -4.698416 0.279189 -18.250907 5.144444 5.272591 14.056859 -0.221800 2.582100 19.447800 6.730660 -30.801753 -11.157740 -8.244247 -34.840104 -9.887724 6.949137 -13.799310 -8.090426 -20.793090 3.743336 -29.221681 72.204985 -32.065402 -88.679400 -7.125000 0.000000 0.000000 29.302600 -54.245100 -41.851200 1.537107 32.985690 -5.187240 16.936454 43.406509 13.889156 -14.565504 12.154972 -10.513806 12.630890 3.724945 -4.967231 -68.111941 -28.626094 66.198700 7.125000 0.000000 0.000000 -84.401700 64.244800 -112.449500 
11.920978 9.224790 31.437767 -178.442340 -7.929999 -112.306323 17.428096 -2.737106 -5.901641 -12.182984 -22.014995 -45.092541 15.215345 31.424212 82.786317 4.818412 -27.298554 30.157115 2.192900 9.256900 26.602200 -19.912227 0.703516 -8.260832 5.161578 7.931245 -84.110231 -33.858159 -27.116242 111.288376 -11.930379 -4.642478 72.376786 -2.357000 -9.573100 27.605000 3.066431 -2.232068 25.075924 2.159657 -2.538380 -3.356622 11.555319 -1.664333 -6.707373 -4.686663 0.260790 -18.203833 5.165816 5.249313 14.103341 -0.215400 2.583600 19.442300 6.709052 -30.759950 -11.144210 -8.327721 -34.878455 -9.716554 6.929332 -13.779250 -8.085920 -20.814812 3.694028 -29.318144 72.315490 -32.047370 -88.888700 -7.125000 0.000000 0.000000 29.445200 -54.375700 -42.037200 1.577155 32.943014 -5.130350 17.027466 43.445154 13.905569 -14.596080 12.193968 -10.566533 12.626039 3.882168 -5.002937 -68.788392 -28.991371 67.978100 7.125000 0.000000 0.000000 -87.920100 64.383000 -116.319900 
11.944459 9.218742 31.410254 -178.746212 -8.253945 -112.497459 17.399230 -2.753953 -5.878924 -12.091674 -22.300760 -44.712858 15.119646 31.407340 82.547629 4.819224 -27.275981 30.275825 2.217600 9.305400 26.755400 -19.924430 0.687887 -8.258883 5.519516 7.547131 -84.345656 -33.971501 -26.905192 111.724239 -11.988521 -4.617028 72.478982 -2.281900 -9.430000 27.150000 3.260134 -2.358728 25.170361 2.187512 -2.672233 -3.345371 11.598889 -1.757085 -6.646431 -4.678904 0.236571 -18.153799 5.189064 5.221386 14.151658 -0.208900 2.583700 19.439100 6.684387 -30.716688 -11.144207 -8.445358 -34.925902 -9.498449 6.917794 -13.757025 -8.089176 -20.829836 3.645850 -29.409835 72.439393 -32.024208 -89.113100 -7.125000 0.000000 0.000000 29.597700 -54.516200 -42.235400 1.623076 32.899390 -5.060656 17.120388 43.477284 13.911510 -14.626572 12.236354 -10.622693 12.617545 4.050991 -5.032788 -69.544105 -29.380080 69.934100 7.125000 0.000000 0.000000 -91.809600 64.418500 -120.589000 
11.968770 9.211271 31.382029 -179.061381 -8.589435 -112.685394 17.368864 -2.773587 -5.854868 -11.997389 -22.591766 -44.329465 15.024103 31.389155 82.308590 4.820890 -27.252562 30.388370 2.243800 9.356400 26.916500 -19.938339 0.679718 -8.260995 5.867416 7.184870 -84.509189 -34.068241 -26.716140 112.097032 -12.072431 -4.571150 72.630347 -2.194800 -9.260600 26.613900 3.457746 -2.488891 25.258418 2.217133 -2.809245 -3.335459 11.649138 -1.853272 -6.585645 -4.675417 0.205406 -18.104495 5.214344 5.188668 14.202855 -0.201900 2.582500 19.441000 6.656908 -30.670720 -11.157323 -8.595009 -34.981945 -9.231425 6.915487 -13.733623 -8.100931 -20.838787 3.597699 -29.500693 72.578045 -31.997081 -89.355300 -7.125000 0.000000 0.000000 29.761100 -54.669500 -42.446500 1.674671 32.853607 -4.975804 17.213966 43.505463 13.914636 -14.661324 12.277514 -10.674516 12.602416 4.197184 -5.045920 -70.250948 -29.718007 71.719300 7.125000 0.000000 0.000000 -95.340500 64.341600 -124.463300 
11.994030 9.202614 31.352974 -179.388973 -8.935831 -112.871202 17.337255 -2.795982 -5.829577 -11.900807 -22.886601 -43.944179 14.929502 31.369755 82.071275 4.823478 -27.228715 30.493567 2.271000 9.409000 27.083400 -19.953978 0.678856 -8.267270 6.201470 6.845513 -84.596669 -34.148234 -26.550151 112.407288 -12.175221 -4.491810 72.820193 -2.093000 -9.057300 25.974600 3.657604 -2.623083 25.341030 2.248331 -2.950209 -3.326907 11.706623 -1.953256 -6.523399 -4.675283 0.168906 -18.059494 5.241225 5.153443 14.257309 -0.194300 2.580400 19.449700 6.626990 -30.620791 -11.179196 -8.767936 -35.043628 -8.920413 6.922149 -13.710531 -8.120301 -20.843990 3.547033 -29.598236 72.730992 -31.967790 -89.616400 -7.125000 0.000000 0.000000 29.935000 -54.835400 -42.669600 1.731159 32.803910 -4.876145 17.309683 43.534661 13.926323 -14.703980 12.312713 -10.716393 12.580607 4.293634 -5.034535 -70.794769 -29.950881 73.044300 7.125000 0.000000 0.000000 -97.917500 64.213900 -127.299600 
